<svg width="1024" height="1024" viewBox="0 0 1024 1024" fill="none" xmlns="http://www.w3.org/2000/svg">
<rect width="1024" height="1024" rx="200" fill="#3A7CA5"/>
<path d="M345.225 504C342.625 523.933 331.358 539.533 311.425 550.8C293.442 560.767 271.017 565.75 244.15 565.75C208.183 565.75 181.1 555.458 162.9 534.875C149.467 519.492 142.75 500.642 142.75 478.325C142.75 461.208 146.758 446.258 154.775 433.475L193.775 425.35C185.108 440.083 180.775 455.575 180.775 471.825C180.775 490.025 186.192 504 197.025 513.75C207.858 523.717 223.567 528.7 244.15 528.7C276.217 528.7 295.717 520.467 302.65 504H271.45L291.925 464.675H346.2V504H345.225ZM222.375 637.575C215.875 637.575 210.675 635.517 206.775 631.4C202.875 627.5 200.925 622.3 200.925 615.8C200.925 609.517 202.875 604.425 206.775 600.525C210.675 596.625 215.875 594.675 222.375 594.675C228.875 594.675 233.967 596.517 237.65 600.2C241.55 604.1 243.5 609.3 243.5 615.8C243.5 630.317 236.458 637.575 222.375 637.575ZM272.425 637.575C265.925 637.575 260.725 635.625 256.825 631.725C252.925 627.825 250.975 622.517 250.975 615.8C250.975 601.717 258.125 594.675 272.425 594.675C278.925 594.675 284.017 596.517 287.7 600.2C291.6 604.1 293.55 609.3 293.55 615.8C293.55 630.317 286.508 637.575 272.425 637.575ZM489.137 464.675H578.512L579.162 504H485.237C474.187 504 463.787 501.292 454.037 495.875C443.853 501.292 433.453 504 422.837 504H329.562V464.675H417.962C408.212 457.958 400.087 451.567 393.587 445.5C389.903 442.25 384.27 436.183 376.687 427.3C374.303 424.483 372.353 422.208 370.837 420.475V401.95C380.37 387.433 392.612 375.842 407.562 367.175C422.728 358.508 438.22 354.175 454.037 354.175C469.637 354.175 485.02 358.617 500.187 367.5C515.353 376.167 527.92 387.867 537.887 402.6V420.475C523.37 438.025 507.12 452.758 489.137 464.675ZM453.712 449.075C469.962 436.292 481.987 423.4 489.787 410.4C476.787 398.267 464.545 392.2 453.062 392.2C442.012 392.2 430.528 398.267 418.612 410.4C427.062 425.35 438.762 438.242 453.712 449.075ZM700.176 314.375L714.801 282.85L800.276 267.575L785.651 298.775L700.176 314.375ZM559.664 504V464.675H594.114C602.347 464.675 608.197 462.942 611.664 459.475C615.347 455.792 617.189 449.725 617.189 441.275V398.375L658.139 376.925V441.275C658.139 449.725 659.872 455.792 663.339 459.475C666.806 462.942 672.656 464.675 680.889 464.675H702.989C711.222 464.675 717.072 462.942 720.539 459.475C724.006 455.792 725.739 449.725 725.739 441.275V389.925L766.689 368.15V441.275C766.689 449.725 768.422 455.792 771.889 459.475C775.572 462.942 781.531 464.675 789.764 464.675H811.864C820.097 464.675 825.947 462.942 829.414 459.475C832.881 455.792 834.614 449.725 834.614 441.275V381.15L875.564 359.7V443.225C875.564 462.508 869.714 477.675 858.014 488.725C847.831 498.475 834.397 503.567 817.714 504H785.539C769.506 504 756.397 499.233 746.214 489.7C736.897 499.017 724.547 503.783 709.164 504H676.989C660.956 504 647.847 499.233 637.664 489.7C627.481 499.233 614.372 504 598.339 504H559.664Z" fill="white"/>
<path d="M378.55 753.65L388.9 739.4C394.4 743.3 401.65 745.25 410.65 745.25C420.05 745.25 424.75 741.7 424.75 734.6C424.75 730.3 418.85 726.15 407.05 722.15C390.65 716.45 382.45 707 382.45 693.8C382.45 685.6 385.5 679.05 391.6 674.15C397.3 669.55 404.95 667.25 414.55 667.25C425.45 667.25 435.9 670.7 445.9 677.6C443.8 680.8 440.5 685.55 436 691.85C426.9 688.35 419.55 686.6 413.95 686.6C407.35 686.6 404.05 689.05 404.05 693.95C404.05 697.65 409.4 701.7 420.1 706.1C430 710.2 437.15 714.6 441.55 719.3C446.05 724 448.3 729.55 448.3 735.95C448.3 746.15 444.5 753.9 436.9 759.2C430.8 763.6 423.1 765.8 413.8 765.8C403 765.8 391.25 761.75 378.55 753.65ZM521.485 764H503.335L501.835 757.85C496.835 763.15 490.485 765.8 482.785 765.8C467.685 765.8 460.135 758.35 460.135 743.45C460.135 736.15 463.235 730.5 469.435 726.5C476.135 722.2 486.135 720.05 499.435 720.05H499.585V719.9C499.585 716.2 498.935 713.8 497.635 712.7C496.435 711.5 493.835 710.9 489.835 710.9C482.835 710.9 476.635 713 471.235 717.2C469.135 713.7 466.985 709.8 464.785 705.5C470.685 701.2 475.935 698.25 480.535 696.65C485.235 694.95 490.635 694.1 496.735 694.1C504.435 694.1 510.485 696.85 514.885 702.35C519.285 707.75 521.485 715.2 521.485 724.7V764ZM498.835 733.25C494.035 733.25 490.085 734.15 486.985 735.95C483.985 737.75 482.485 740.1 482.485 743V743.15C482.785 747.65 484.635 749.95 488.035 750.05H488.335C491.135 750.05 493.535 749.1 495.535 747.2C497.635 745.2 498.735 742.85 498.835 740.15V733.25ZM546.561 700.85C542.061 700.85 538.411 699.4 535.611 696.5C532.911 693.6 531.561 689.8 531.561 685.1C531.561 679.9 533.211 675.6 536.511 672.2C539.911 668.8 544.111 667.1 549.111 667.1C554.211 667.1 558.311 668.85 561.411 672.35C564.611 675.75 566.211 680.25 566.211 685.85V720.35L552.861 722.15V700.85H546.561ZM649.96 695.9L621.76 773.75C617.16 786.35 610.46 792.65 601.66 792.65C594.26 792.65 586.71 789.4 579.01 782.9C581.41 779 583.36 775.5 584.86 772.4C588.76 775 592.21 776.3 595.21 776.3C596.81 776.3 598.46 775.1 600.16 772.7C601.86 770.4 603.16 767.5 604.06 764H599.86L577.06 695.9H599.11C602.71 708.5 606.96 722.5 611.86 737.9L627.76 695.9H649.96Z" fill="white"/>
</svg>
